<svg xmlns="http://www.w3.org/2000/svg" width="256" height="256"><path fill-opacity=".016" d="M0 128.004v128.004l128.25-.254 128.25-.254.254-127.75L257.008 0H0v128.004m.485.496c0 70.4.119 99.053.265 63.672.146-35.38.146-92.98 0-128C.604 29.153.485 58.1.485 128.5" fill="#1976D2" fill-rule="evenodd"/><path fill-opacity=".195" d="M27.329 1.92C16.894 5.704 8.363 13.505 3.222 23.963L.5 29.5v197l3.373 6.722c4.099 8.167 11.883 15.836 19.874 19.582L29.5 255.5l38.982.295c42.073.318 42.392.283 45.103-4.96 1.815-3.51 1.789-6.211-.095-9.855-2.792-5.399-3.096-5.441-43.066-5.98l-37.075-.5-4.054-2.684c-2.439-1.615-4.897-4.429-6.174-7.066C21.007 220.382 21 220.083 21 128s.007-92.382 2.121-96.75c1.278-2.639 3.734-5.45 6.176-7.066l4.056-2.684 66.073-.301c44.089-.201 67.277.049 69.689.75 4.606 1.338 8.455 4.369 10.655 8.389 1.542 2.819 1.784 7.924 2.23 46.995l.5 43.833 3.266 2.917c4.579 4.09 10.232 4.073 14.349-.044l2.962-2.962-.289-45.788L202.5 29.5l-2.696-5.753c-3.745-7.99-11.415-15.775-19.582-19.874L173.5.5 103 .273C36.246.057 32.225.145 27.329 1.92M91 38.29c-1.375.693-7.618 7.365-13.874 14.827L65.751 66.685l-4.074-4.419c-2.24-2.431-5.389-5.1-6.997-5.931C48.079 52.921 40 58.281 40 66.074c0 3.496.784 4.748 7.25 11.572 10.358 10.933 16.747 13.34 25.798 9.718 3.303-1.321 6.77-4.891 18.021-18.553C103.813 53.336 105 51.555 105 47.912c0-4.955-2.2-8.438-6.215-9.837-3.893-1.357-4.712-1.334-7.785.215m27.763 27.275c-6.427 3.487-7.274 12.144-1.652 16.875 3.01 2.533 3.227 2.56 20.515 2.56 18.47 0 22.092-.736 24.344-4.945 1.396-2.608 1.246-9.2-.252-11.101-3.604-4.574-5.405-4.956-23.191-4.914-13.105.031-17.657.382-19.764 1.525m-28.917 34.461c-.909.531-6.692 7.067-12.851 14.525L65.796 128.11l-5.824-5.555c-5.15-4.913-6.304-5.555-9.975-5.555-5.862 0-9.997 4.152-9.997 10.038 0 3.875.585 4.794 7.75 12.171 4.262 4.389 8.965 8.612 10.45 9.385 3.954 2.058 12.658 1.79 16.425-.507 2.685-1.637 23.623-25.788 28.662-33.06 4.576-6.603-.129-16.059-7.96-15.997-2.105.017-4.571.465-5.481.996m26.84 28.389c-4.755 4.407-4.755 10.763 0 15.17 2.564 2.376 2.908 2.415 21.537 2.415h18.931l2.923-2.923c2.292-2.293 2.923-3.819 2.923-7.077s-.631-4.784-2.923-7.077L157.154 126h-18.931c-18.629 0-18.973.039-21.537 2.415m100.308 8.461c-6.681 2.187-11.614 6.488-39.558 34.494l-30.064 30.13-6.223 21c-3.423 11.55-6.206 22.497-6.186 24.327.051 4.612 4.661 9.173 9.271 9.173 1.864 0 13.013-2.681 24.778-5.957l21.389-5.957 30.322-30.293c20.935-20.915 31.002-31.686 32.521-34.793 2.944-6.022 3.526-16.167 1.31-22.837-2.006-6.04-8.108-13.231-14.311-16.866-3.744-2.195-6.004-2.723-12.651-2.956-4.451-.157-9.22.084-10.598.535m5.066 20.876c-1.893.961-3.583 2.208-3.758 2.77-.174.562 2.64 3.937 6.252 7.5l6.569 6.478 1.939-2.361c2.135-2.601 2.554-8.119.858-11.289-.595-1.111-2.605-2.656-4.468-3.435-4.11-1.717-3.277-1.755-7.392.337m-132.222 3.003c-1.464.96-7.274 7.37-12.91 14.245a32532.022 32532.022 0 0 1-10.611 12.94c-.2.242-2.49-1.619-5.09-4.135-7.433-7.192-10.903-8.291-16.237-5.14-5.625 3.323-6.52 9.926-2.16 15.935 4.275 5.892 13.706 14.092 17.738 15.423 4.676 1.543 11.332.502 15.243-2.384 1.7-1.254 8.963-9.424 16.14-18.155C103.7 175.19 105 173.222 105 169.738c0-4.911-1.304-7.327-4.98-9.228-3.821-1.976-6.906-1.902-10.182.245m94.449 33.495-18.193 18.25-2.534 8c-1.394 4.4-2.54 8.496-2.547 9.102-.008.682 3.677.032 9.695-1.712l9.708-2.813 18.026-18.026 18.026-18.025-6.455-6.513c-3.551-3.582-6.698-6.513-6.994-6.513-.297 0-8.726 8.213-18.732 18.25m-76.72 17.676c-2.173 2.402-1.688 5.437.944 5.902 1.942.343 1.944.318.086-1.086-2.07-1.565-1.429-3.742 1.101-3.742 1.327 0 1.492.973 1.029 6.074-.303 3.341-1.212 6.828-2.021 7.75-2.461 2.807-2.915 5.758-1.114 7.252 1.414 1.174 1.895 1.041 3.523-.969 1.037-1.281 1.885-3.669 1.885-5.307 0-2.222 1.16-4.106 4.564-7.414 3.575-3.475 4.496-5.026 4.25-7.161-.348-3.016-3.848-4.272-6.28-2.253-.934.775-1.558.798-2.004.077-1.03-1.667-4.065-1.22-5.963.877m19.607.388c-3.009 3.204-2.739 5.055 1.407 9.644 4.14 4.582 4.195 7.393.155 7.859-3.29.38-5.025-2.516-2.39-3.99 2.031-1.137 2.166-2.827.225-2.827-4.499 0-6.203 7.299-2.137 9.152 3.139 1.43 8.627-1.539 9.985-5.403.819-2.329.417-3.204-3.358-7.298-3.993-4.332-4.174-4.766-2.627-6.302 1.544-1.533 1.786-1.485 3.427.679 1.582 2.086 1.901 2.164 3.074.75 1.048-1.263 1.061-1.878.065-3.078-1.824-2.197-5.34-1.831-7.826.814m-12.473 1.318c-.385.386-.687 2.539-.669 4.785l.031 4.083 2.52-2.865c1.385-1.576 2.379-3.596 2.207-4.489-.333-1.727-2.918-2.684-4.089-1.514m-6.034 15.035c-1.038 1.037-.784 4.333.333 4.333.55 0 1-1.125 1-2.5 0-2.618-.231-2.936-1.333-1.833" fill="#1976D2" fill-rule="evenodd"/><path fill-opacity=".609" d="M30.024 1.603C15.847 5.413 5.198 16.26 1.512 30.646.141 35.999-.016 48.184.225 130.621L.5 224.5l2.264 5.5c4.593 11.155 12.234 18.719 23.642 23.402 4.799 1.97 7.238 2.109 42.135 2.399 23.297.194 38.026-.066 39.697-.702 6.566-2.496 8.146-11.58 2.839-16.322L107.968 236l-34.734-.006c-21.152-.003-36.211-.415-38.511-1.054-4.413-1.226-10.107-5.926-12.524-10.338-1.564-2.856-1.699-10.45-1.699-95.602 0-50.875.344-93.729.764-95.232.977-3.491 6.134-9.378 10.134-11.569C34.23 20.648 40.342 20.5 101.5 20.5s67.27.148 70.102 1.699c4.412 2.417 9.112 8.111 10.338 12.524.651 2.345 1.059 19.324 1.077 44.777.025 37.332.182 41.191 1.755 43.133 4.952 6.113 13.188 5.62 16.703-1.001 1.492-2.81 1.63-7.603 1.342-46.632-.316-43.004-.347-43.567-2.675-49.344-4.744-11.769-15.245-20.947-27.602-24.124-8.679-2.231-134.181-2.169-142.516.071m60.259 37.048c-.876.356-18.862 21.571-23.956 28.258-.172.225-2.982-2.137-6.245-5.25C55.096 56.903 53.567 56 50.508 56c-4.738 0-7.121 1.351-9.086 5.151-2.773 5.363-1.315 8.623 7.869 17.587 6.173 6.025 9.331 8.352 12.486 9.202 4.955 1.334 10.515.192 14.564-2.993 2.458-1.934 23.294-26.607 26.955-31.92 4.369-6.339-.305-15.106-7.969-14.948-2.105.043-4.375.301-5.044.572m26.353 28.985c-3.598 3.598-3.719 10.372-.248 13.843 3.261 3.26 6.689 3.719 24.994 3.344l15.787-.323 3.028-3.392c2.63-2.945 2.956-3.932 2.477-7.498-.366-2.733-1.426-4.86-3.168-6.358-2.514-2.163-3.359-2.252-21.425-2.252h-18.808l-2.637 2.636m-26.27 32.649c-1.173.668-6.749 6.84-12.39 13.715-5.641 6.875-10.647 12.93-11.123 13.456-.527.583-2.719-.837-5.609-3.634-8.316-8.047-12.43-8.836-17.844-3.422-5.855 5.855-4.026 11.224 7.469 21.91 8.447 7.853 14.834 9.464 22.604 5.703 3.013-1.458 7.444-6.048 16.656-17.25 6.902-8.395 13.072-16.246 13.711-17.447 4.405-8.292-5.304-17.681-13.474-13.031m26.557 28.638C114.631 131.216 114 132.742 114 136s.631 4.784 2.923 7.077l2.923 2.923h17.53c19.065 0 21.844-.591 24.199-5.145 2.677-5.177.821-11.442-4.047-13.66-1.714-.781-8.691-1.195-20.152-1.195h-17.53l-2.923 2.923M215 138.179c-4.916 1.854-8.768 5.327-36.266 32.698L147.968 201.5l-6.484 21.379c-3.566 11.758-6.484 22.49-6.484 23.85 0 3.074 5.977 9.271 8.943 9.271 3.945 0 45.287-12.027 47.94-13.947 1.439-1.041 15.312-14.657 30.828-30.258C254.633 179.7 255.35 178.697 255.444 166c.047-6.267-.406-8.441-2.755-13.224-6.82-13.888-22.978-20.146-37.689-14.597m5.091 19.907-3.409 2.078 7.149 7.15 7.15 7.15 2.237-2.237c1.588-1.588 2.237-3.426 2.237-6.334 0-3.359-.585-4.62-3.244-6.995-3.864-3.453-7.4-3.69-12.12-.812M91.339 159.96c-1.189.501-7.438 7.276-13.888 15.057l-11.727 14.147-5.738-5.677c-4.75-4.701-6.36-5.696-9.358-5.781-6.55-.185-11.698 5.896-10.164 12.007.859 3.423 14.104 17.149 18.254 18.916 4.143 1.765 10.44 1.75 14.715-.036 2.289-.957 7.171-6.003 15.239-15.75C105.159 172.925 105 173.152 105 169.381c0-6.439-7.862-11.861-13.661-9.421m92.915 33.289L166.027 211.5l-2.965 9.465c-1.631 5.205-2.82 9.611-2.641 9.789.178.178 4.589-.859 9.802-2.305l9.477-2.629 18.391-18.411 18.39-18.411-7-7-7-7-18.227 18.251m-75.004 17.413c-.687.278-1.25.992-1.25 1.588 0 .596.296.787.658.425.362-.362 1.237-.177 1.944.41 1.254 1.04 1.236 2.919-.146 15.875-.356 3.346-.19 4.174.668 3.316 1.274-1.274 3.099-17.783 2.27-20.526-.525-1.737-1.743-2.057-4.144-1.088m7.21.751c-1.941 1.425-1.941 1.437.04 1.263 2.451-.216 3.291 3.609 1.344 6.129-.932 1.206-.652 1.133.972-.254 1.616-1.38 2.194-2.816 1.983-4.923-.354-3.521-1.657-4.186-4.339-2.215M129.5 211c-.34.55.061 1 .891 1 .83 0 1.92.733 2.421 1.628.65 1.161 1.119 1.292 1.636.457.858-1.388-1.13-4.085-3.011-4.085-.726 0-1.597.45-1.937 1m-3.813 3.373c-.766 1.996.369 4.602 2.92 6.709.945.78 2.543 2.768 3.551 4.418l1.835 3 .003-2.747c.003-1.708-1.265-4.166-3.351-6.5-1.845-2.064-3.563-4.405-3.817-5.202-.365-1.149-.602-1.082-1.141.322m-3.029 13.077c-.941 2.45 1.026 4.558 4.214 4.515l2.628-.036-2.449-1.356c-1.347-.746-2.731-2.16-3.075-3.142-.599-1.707-.656-1.706-1.318.019" fill="#1976D2" fill-rule="evenodd"/><path fill-opacity=".975" d="M28.286 2.437C18.005 5.683 8.868 13.783 4.16 23.825L1.5 29.5v197l2.68 5.718c3.741 7.982 10.765 15.137 18.691 19.041l6.581 3.241 39.006.295c28.083.212 39.61-.029 41.164-.86 3.871-2.072 5.604-8.775 3.355-12.978-2.272-4.246-3.91-4.436-42.643-4.957l-37.166-.5-4.257-3c-2.342-1.65-5.305-4.983-6.584-7.407L20 220.685V35.315l2.327-4.408c1.279-2.424 4.243-5.757 6.585-7.407l4.259-3 67.219-.27 67.218-.271 4.446 2.347c2.445 1.291 5.796 4.263 7.446 6.605l3 4.257.5 43.837.5 43.837 2.345 2.494c1.289 1.372 3.423 2.765 4.741 3.096 3.099.778 8.937-1.673 10.372-4.354.791-1.477 1.034-15.367.831-47.334L201.5 29.5l-2.68-5.718c-3.742-7.984-10.765-15.137-18.693-19.041L173.544 1.5l-70.522-.196c-56.34-.157-71.369.071-74.736 1.133m61.549 37.478c-1.339 1.053-7.119 7.578-12.844 14.5C71.265 61.337 66.113 67 65.54 67c-.572 0-2.325-1.611-3.896-3.579-5.991-7.509-12.318-9.249-17.567-4.832C41.501 60.756 41 61.893 41 65.57c0 4.046.528 4.953 6.697 11.491C55.3 85.121 60.117 88 66 88c7.127 0 10.664-2.796 24-18.969 6.875-8.338 13.068-16.492 13.763-18.12 1.666-3.905.69-7.352-2.949-10.414-3.546-2.984-7.649-3.201-10.979-.582m29.522 26.077c-5.851 2.361-7.144 10.375-2.434 15.085L119.846 84h18.355c20.405 0 21.775-.367 23.752-6.359 1.369-4.147.225-7.569-3.513-10.51-2.534-1.993-3.82-2.127-19.825-2.068-9.413.035-18.079.453-19.258.929M91.5 100.411c-2.384 1.021-13.032 13.075-25.204 28.532-.191.243-2.924-2.061-6.072-5.122-6.462-6.282-9.115-7.311-13.801-5.353-3.919 1.637-5.423 4.153-5.423 9.073 0 3.203.926 4.628 7.25 11.162 3.987 4.119 8.568 8.174 10.179 9.011 3.949 2.053 11.34 2.014 15.348-.08 3.455-1.806 28.686-31.371 30.345-35.558 2.926-7.384-5.162-14.859-12.622-11.665m30 26.439c-6.813 2.215-9.24 7.885-6.03 14.091 2.162 4.181 6.103 5.059 22.711 5.059 17.526 0 21.078-.982 23.368-6.464 1.304-3.119 1.304-3.953 0-7.072-2.304-5.514-5.841-6.482-23.267-6.364-8.13.055-15.682.392-16.782.75m98.844 10.219c-8.495 1.624-12.504 4.857-40.681 32.813-15.31 15.19-28.691 28.803-29.735 30.252-1.045 1.449-4.831 12.375-8.414 24.281-6.204 20.614-6.447 21.809-5.099 25.036 3.006 7.195 6.146 7.16 32.964-.364l20.879-5.858 29.436-29.364c16.19-16.151 30.644-31.39 32.121-33.865 2.409-4.038 2.685-5.476 2.685-14 0-8.498-.281-9.975-2.665-14-6.839-11.549-19.006-17.317-31.491-14.931m-1.038 21.381-2.806 2.449 7.3 7.301 7.301 7.3 2.449-2.806c1.729-1.979 2.45-3.99 2.45-6.827 0-8.615-10.155-13.127-16.694-7.417m-128.94 2.835c-1.173.668-6.749 6.84-12.39 13.715-5.641 6.875-10.633 12.916-11.092 13.426-.487.539-3.317-1.443-6.785-4.75-4.647-4.433-6.638-5.676-9.091-5.676-6.333 0-9.928 3.438-9.976 9.539-.028 3.593.686 4.826 6.467 11.161 11.16 12.227 21.075 14.583 29.39 6.983 4.503-4.115 26.164-30.691 27.168-33.332 1.28-3.366-.393-8.772-3.356-10.848-2.565-1.796-7.383-1.898-10.335-.218m93.448 32.465-18.667 18.75-2.574 8.552c-1.415 4.703-2.573 9.032-2.573 9.62 0 .641 4.085-.071 10.227-1.783l10.228-2.85 18.507-18.508 18.508-18.507-6.958-7.012c-3.827-3.857-7.2-7.012-7.495-7.012-.295 0-8.937 8.438-19.203 18.75" fill="#1976D2" fill-rule="evenodd"/></svg>